/* XPM */
static char *evaluate[] = {
/* columns rows colors chars-per-pixel */
"22 22 151 2 ",
"   c #CE5C00",
".  c #DE8C13",
"X  c #DF8E15",
"o  c #DC8D17",
"O  c #DB8C18",
"+  c #DD8F1B",
"@  c #E08E16",
"#  c #E08F16",
"$  c #E18F16",
"%  c #E18F17",
"&  c #E29119",
"*  c #E39119",
"=  c #E3911A",
"-  c #E3921A",
";  c #E2921B",
":  c #E0911E",
">  c #E4931C",
",  c #E5941C",
"<  c #E5941D",
"1  c #E6951E",
"2  c #E6961F",
"3  c #E7961F",
"4  c #DF972C",
"5  c #E19320",
"6  c #E29521",
"7  c #E69621",
"8  c #E59725",
"9  c #E69926",
"0  c #E89822",
"q  c #E89923",
"w  c #E1982B",
"e  c #E79B2A",
"r  c #E39A2F",
"t  c #E59B2C",
"y  c #E49B2E",
"u  c #E49B2F",
"i  c #EE9E29",
"p  c #EF9F2B",
"a  c #E59C32",
"s  c #E79E33",
"d  c #E19B35",
"f  c #E29D35",
"g  c #F1A22F",
"h  c #EDA131",
"j  c #EFA230",
"k  c #EFA332",
"l  c #EAA238",
"z  c #EAA339",
"x  c #F3A534",
"c  c #F6A939",
"v  c #E7A748",
"b  c #F4AB40",
"n  c #EBAE53",
"m  c #EBAF57",
"M  c #EFB258",
"N  c #EBB05C",
"B  c #EEB45D",
"V  c #F1B155",
"C  c #EFB766",
"Z  c #EFB865",
"A  c #F5BB65",
"S  c #EEBC73",
"D  c #F1BE73",
"F  c #F8C06E",
"G  c #EFC07A",
"H  c #FBC575",
"J  c #F2C27A",
"K  c #F3C27A",
"L  c #F3C37C",
"P  c #F3C47F",
"I  c #EDC180",
"U  c #EEC281",
"Y  c #EEC588",
"T  c #F3C581",
"R  c #F6C987",
"E  c #F4C389",
"W  c #F0C78B",
"Q  c #F4C48B",
"!  c #F2C68C",
"~  c #F4C48C",
"^  c #F5C48C",
"/  c #F4C58D",
"(  c #F3C98B",
")  c #F4C98B",
"_  c #F2C98C",
"`  c #F2CA8E",
"'  c #F3CA8E",
"]  c #F2CA8F",
"[  c #F3CB8F",
"{  c #F5CB8C",
"}  c #F7C98E",
"|  c #F4CB8F",
" . c #FBCE8B",
".. c #F8C98D",
"X. c #EFCB96",
"o. c #F3C790",
"O. c #F1C990",
"+. c #F3C891",
"@. c #F3CB90",
"#. c #F1C892",
"$. c #F3C892",
"%. c #F3C992",
"&. c #F2C893",
"*. c #F2C993",
"=. c #F3CC90",
"-. c #F4CC90",
";. c #F4CC91",
":. c #F5CD91",
">. c #F4CD92",
",. c #F5CD92",
"<. c #F5CE93",
"1. c #F6CE93",
"2. c #F5CE94",
"3. c #F6CE94",
"4. c #F6CF94",
"5. c #F6CF95",
"6. c #F9CC91",
"7. c #F5CB9B",
"8. c #F4CC9C",
"9. c #F7D095",
"0. c #F7D096",
"q. c #F8D095",
"w. c #F8D197",
"e. c #F8D198",
"r. c #F8D298",
"t. c #F9D299",
"y. c #F9D399",
"u. c #FAD39A",
"i. c #FBD49A",
"p. c #FBD49B",
"a. c #FBD59B",
"s. c #FCD59D",
"d. c #FCD69D",
"f. c #FDD69E",
"g. c #F6D5AB",
"h. c #F6D5AD",
"j. c #F8D6A8",
"k. c #F9D7B2",
"l. c #F6DFBD",
"z. c #F6DDBE",
"x. c #F7DFBE",
"c. c #FADFBB",
"v. c #F9DEBD",
"b. c #F8E1BE",
"n. c #F9E1BE",
"m. c #FAE2BF",
"M. c #FCE2BC",
"N. c #FBE2C0",
"B. c #FCE3C0",
"V. c #F9E4CB",
"C. c None",
/* pixels */
"C.C.C.C.C.C.C.C.C.C.C.C.C.C.C.C.C.C.C.C.C.C.",
"C.C.C.C.C.C.C.C.C.C.    C.C.C.C.C.C.C.C.C.C.",
"C.C.C.C.C.C.C.C.C.  8.z.  C.C.C.C.C.C.C.C.C.",
"C.C.C.C.C.C.C.C.  h.4 O #.  C.C.C.C.C.C.C.C.",
"C.C.C.C.C.C.C.  7.X.d o + &.  C.C.C.C.C.C.C.",
"C.C.C.C.C.C.  / f Y I w . : *.  C.C.C.C.C.C.",
"C.C.C.C.C.  ~ r X U v $ # @ 5 $.  C.C.C.C.C.",
"C.C.C.C.  ^ r % ; W G t - * & 6 +.  C.C.C.C.",
"C.C.C.  Q u & - s ` n e 9 < m 8 N o.  C.C.C.",
"C.C.  E y = > 1 C ( 0 q B D ' ] _ S g.  C.C.",
"C.  k.a - , 2 l -.J M T :.>.;.=.[ ` O.V.  C.",
"C.C.  ! 7 3 z ) K h V 1.3.2.<.>.;.@.l.  C.C.",
"C.C.C.  %.Z | L { p R 0.0.9.4.<.,.x.  C.C.C.",
"C.C.C.C.  v.P i k A q.r.e.w.0.5.b.  C.C.C.C.",
"C.C.C.C.C.  j.j g b y.u.y.t.w.n.  C.C.C.C.C.",
"C.C.C.C.C.C.  } x F i.a.p.u.m.  C.C.C.C.C.C.",
"C.C.C.C.C.C.C.  ..c  .d.s.N.  C.C.C.C.C.C.C.",
"C.C.C.C.C.C.C.C.  6.H f.B.  C.C.C.C.C.C.C.C.",
"C.C.C.C.C.C.C.C.C.  c.M.  C.C.C.C.C.C.C.C.C.",
"C.C.C.C.C.C.C.C.C.C.    C.C.C.C.C.C.C.C.C.C.",
"C.C.C.C.C.C.C.C.C.C.C.C.C.C.C.C.C.C.C.C.C.C.",
"C.C.C.C.C.C.C.C.C.C.C.C.C.C.C.C.C.C.C.C.C.C."
};
