/* XPM */
static char *inspect[] = {
/* columns rows colors chars-per-pixel */
"22 22 151 2 ",
"   c #585A57",
".  c #5E605D",
"X  c #5F605E",
"o  c #646662",
"O  c #666864",
"+  c #676965",
"@  c #686966",
"#  c #686A66",
"$  c #696B66",
"%  c #686A67",
"&  c #696A68",
"*  c #6A6B68",
"=  c gray42",
"-  c #6A6C68",
";  c #6B6C69",
":  c #6B6D69",
">  c #6C6E69",
",  c #6C6D6A",
"<  c #6C6E6A",
"1  c #6D6F6A",
"2  c #6C6E6B",
"3  c #6D6E6B",
"4  c #6D6F6C",
"5  c #6E706B",
"6  c #6F706C",
"7  c #6F716C",
"8  c #70716D",
"9  c #767875",
"0  c #7A7C78",
"q  c #7F807D",
"w  c #5980AD",
"e  c #5C85B3",
"r  c #618AB9",
"t  c #6690BF",
"y  c #6893C2",
"u  c #6994C5",
"i  c #6D97C5",
"p  c #6E9AC9",
"a  c #6E9ACA",
"s  c #6F9CCD",
"d  c #729DCF",
"f  c #719ECE",
"g  c #729FCE",
"h  c #739FCE",
"j  c #729ECF",
"k  c #729FCF",
"l  c #739FCF",
"z  c #749FCE",
"x  c #76A0CD",
"c  c #75A1CF",
"v  c #78A1CD",
"b  c #78A1CE",
"n  c #838580",
"m  c #828481",
"M  c #848682",
"N  c #888A85",
"B  c #898A89",
"V  c #8F908F",
"C  c #919291",
"Z  c gray59",
"A  c gray60",
"S  c #9B9B9B",
"D  c gray63",
"F  c #A3A4A1",
"G  c #A7A8A6",
"H  c gray66",
"J  c #A8A9A8",
"K  c gray68",
"L  c gray",
"P  c #8AA6C5",
"I  c #8EA8C5",
"U  c #82A4CA",
"Y  c #85A6CA",
"T  c #89A9CB",
"R  c #96A9C1",
"E  c #9BADC2",
"W  c #9EAFC4",
"Q  c #85ABD6",
"!  c #8FB1D9",
"~  c #96B3D2",
"^  c #97B4D3",
"/  c #97B8DB",
"(  c #ADBACA",
")  c #B9CADC",
"_  c #BECEDE",
"`  c #A9C4E2",
"'  c #AEC8E3",
"]  c #B4CCE6",
"[  c #B6CDE6",
"{  c #B9CEE7",
"}  c gray76",
"|  c gray77",
" . c #C9C9C8",
".. c #CACAC9",
"X. c #CBCCCA",
"o. c gray80",
"O. c gray82",
"+. c #D2D2D2",
"@. c #D5D5D5",
"#. c #D1D5D9",
"$. c #D4D6D9",
"%. c #D6D8DA",
"&. c #D7D8DA",
"*. c #D8D8D8",
"=. c #D9D9D8",
"-. c #DADAD9",
";. c #D8DADB",
":. c #DADADA",
">. c #DADBDB",
",. c gray86",
"<. c #DADBDC",
"1. c gainsboro",
"2. c #DCDDDE",
"3. c gray87",
"4. c #DFDFDF",
"5. c #C0D3E9",
"6. c #C4D6EA",
"7. c #C7D8EB",
"8. c #C7D9EC",
"9. c #C8D9EC",
"0. c #CBDBEC",
"q. c #D1D9E1",
"w. c #D2D9E0",
"e. c #D5DCE4",
"r. c #D2E0EF",
"t. c #DBE2E9",
"y. c #D1E0F0",
"u. c #D3E0F0",
"i. c #D3E1F0",
"p. c #D6E2F1",
"a. c #D6E3F1",
"s. c #D7E4F1",
"d. c #D9E4F2",
"f. c #D9E5F2",
"g. c #DAE5F2",
"h. c #DBE6F2",
"j. c #DBE6F3",
"k. c #DDE8F3",
"l. c #DEE8F4",
"z. c #E1E1E1",
"x. c #E2E2E2",
"c. c #E7E7E7",
"v. c #ECECEC",
"b. c #E0EAF4",
"n. c #E1EAF5",
"m. c #E2EBF5",
"M. c #E4ECF5",
"N. c #E4ECF6",
"B. c #E7EEF7",
"V. c #ECF2F8",
"C. c None",
/* pixels */
"C.C.C.C.C.C.C.C.C.C.C.C.C.C.C.C.C.C.C.C.C.C.",
"C.C.C.C.C.9 6 8 5 7 1 0 C.C.C.C.C.C.C.C.C.C.",
"C.C.C.C.4 X.<.$.#.%.&...2 C.C.C.C.C.C.C.C.C.",
"C.C.C.7 >.R i c k z y E 3.5 C.C.C.C.C.C.C.C.",
"C.C.< :.P k 7.m.b.a.' g I ,.: C.C.C.C.C.C.C.",
"C.C.G W g p.B.V.N.j.y./ f ( F C.C.C.C.C.C.C.",
"C.$ -.t ` g.n.M.m.h.r.Q k U =.$ C.C.C.C.C.C.",
"C.1 2.a 6.u.g.l.k.d.{ d j a x.< C.C.C.C.C.C.",
"C.5 ;.f ] 0.i.s.f.9.C.C.d f x.5 C.C.C.C.C.C.",
"C.> 4.x ! [ 8.5.C.C.C.C.l p ,.> C.C.C.C.C.C.",
"C.n | Y u d C.C.C.C.C.C.r T  .M C.C.C.C.C.C.",
"C.C.m q.g s C.C.C.C.C.C.g w.+ C.C.C.C.C.C.C.",
"C.C.- J ) g e C.C.C.w h _ o.K @ C.C.C.C.C.C.",
"C.C.C.> C t.~ v g b ^ e.* z.H Z O C.C.C.C.C.",
"C.C.C.C.- q V } 4.L B o C.3 *.Z A + C.C.C.C.",
"C.C.C.C.C.C.N > 1 > N C.C.= , +.S A + C.C.C.",
"C.C.C.C.C.C.C.C.C.C.C.C.C.C.C., +.D H # C.C.",
"C.C.C.C.C.C.C.C.C.C.C.C.C.C.C.C.; O.| @.  C.",
"C.C.C.C.C.C.C.C.C.v.c.C.C.C.C.C.C.. 1.x.% C.",
"C.C.C.C.C.C.C.C.C.C.C.C.C.C.C.C.C.C.X & C.C.",
"C.C.C.C.C.C.C.C.C.C.C.C.C.C.C.C.C.C.C.C.C.C.",
"C.C.C.C.C.C.C.C.C.C.C.C.C.C.C.C.C.C.C.C.C.C."
};
