/* XPM */
static char *load_file[] = {
/* columns rows colors chars-per-pixel */
"22 22 179 2 ",
"   c #3C3C3C",
".  c gray27",
"X  c #464646",
"o  c gray29",
"O  c gray30",
"+  c gray32",
"@  c #555753",
"#  c #555555",
"$  c #565854",
"%  c #575955",
"&  c #565957",
"*  c #585A56",
"=  c #595B58",
"-  c #5A5A5A",
";  c #5A5C59",
":  c #5B5D59",
">  c #5A5C5B",
",  c #5C5E5B",
"<  c #5D5F5B",
"1  c #5E5F5C",
"2  c gray37",
"3  c gray38",
"4  c #656565",
"5  c #6B6B6A",
"6  c #6F6F6F",
"7  c #727272",
"8  c #767676",
"9  c gray48",
"0  c #7B7B7B",
"q  c #2C5589",
"w  c #395A85",
"e  c #3363A1",
"r  c #3464A1",
"t  c #3464A2",
"y  c #3565A4",
"u  c #3566A4",
"i  c #3566A5",
"p  c #3567A5",
"a  c #3667A4",
"s  c #3667A5",
"d  c #3667A6",
"f  c #3768A5",
"g  c #3768A6",
"h  c #3B69A5",
"j  c #3869A6",
"k  c #3969A7",
"l  c #3C6BA6",
"z  c #3969A8",
"x  c #3A6BA8",
"c  c #697F9A",
"v  c #446FA6",
"b  c #416FA9",
"n  c #4C74A6",
"m  c #4272AF",
"M  c #567AA6",
"N  c #4D7DB6",
"B  c #557EB1",
"V  c #607FA5",
"C  c #4E80B6",
"Z  c #5181B8",
"A  c #5E89BD",
"S  c #6B84A5",
"D  c #758BA6",
"F  c #7098C5",
"G  c #7399C4",
"H  c #709ECF",
"J  c #719ECF",
"K  c #74A0D0",
"L  c #7CA6D3",
"P  c #7DA6D4",
"I  c #7EA7D4",
"U  c #919190",
"Y  c #969795",
"T  c #9C9D9B",
"R  c #9C9D9C",
"E  c #9FA09E",
"W  c #A0A09F",
"Q  c #8F97A1",
"!  c #8B98A8",
"~  c #9B9FA3",
"^  c #9E9FA1",
"/  c #A2A3A5",
"(  c #A4A5A7",
")  c #A5A6A6",
"_  c gray65",
"`  c #A6A7A9",
"'  c gray66",
"]  c #AAAAAA",
"[  c gray67",
"{  c #ACACAC",
"}  c gray68",
"|  c #AEAEAE",
" . c #AFAFAF",
".. c #B1B1B1",
"X. c gray70",
"o. c #B5B5B4",
"O. c #B9B9B9",
"+. c gray74",
"@. c #80A2CB",
"#. c #86A8CF",
"$. c #80A9D5",
"%. c #84ABD5",
"&. c #84ABD6",
"*. c #87ADD7",
"=. c #8DADD2",
"-. c #89AED8",
";. c #8AAFD8",
":. c #8CB1D7",
">. c #8BB0D9",
",. c #8DB1D9",
"<. c #8EB2D8",
"1. c #8EB3D9",
"2. c #8FB2DA",
"3. c #95B3D6",
"4. c #90B2D9",
"5. c #90B3D9",
"6. c #92B5DA",
"7. c #92B4DB",
"8. c #92B5DB",
"9. c #94B6DB",
"0. c #94B6DC",
"q. c #95B6DC",
"w. c #94B7DC",
"e. c #95B7DC",
"r. c #9BB7D9",
"t. c #96B8DC",
"y. c #97B8DC",
"u. c #96B8DD",
"i. c #9DB9DA",
"p. c #9ABADD",
"a. c #9DBCDE",
"s. c #A1BEDE",
"d. c #A3BFDE",
"f. c #A2BFE0",
"g. c #A7C1DE",
"h. c #A7C1DF",
"j. c #A8C3E2",
"k. c #AAC5E1",
"l. c #A9C4E2",
"z. c #A9C5E2",
"x. c #B6CEE6",
"c. c #BED3EA",
"v. c #BFD4EA",
"b. c #C1C1C1",
"n. c gray77",
"m. c #C9C9C8",
"M. c #CBCBCB",
"N. c #CDCDCD",
"B. c gray81",
"V. c #D0D0D0",
"C. c #D0D1D0",
"Z. c #D2D2D2",
"A. c LightGray",
"S. c #D5D5D4",
"D. c #D4D5D7",
"F. c #DADADA",
"G. c gainsboro",
"H. c #DDDDDD",
"J. c #C0D4EA",
"K. c gray88",
"L. c #E1E1E1",
"P. c #E2E2E2",
"I. c gray89",
"U. c #E2E3E5",
"Y. c #E3E4E6",
"T. c gray90",
"R. c #E4E5E7",
"E. c #E6E6E6",
"W. c #E5E6E8",
"Q. c #E6E7E9",
"!. c #E9E9E9",
"~. c gray97",
"^. c #F8F8F8",
"/. c #F9F9F9",
"(. c gray98",
"). c #FBFBFB",
"_. c #FDFDFD",
"`. c #FEFEFE",
"'. c None",
/* pixels */
"'.'.'.'.'.'.'.'.$ % $ % % * * 1 '.'.'.'.'.'.",
"'.'.'.'.'.'.'.'.$ ~.^./.(.).).W = '.'.'.'.'.",
"'.9 0 0 0 0 0 0 @ F.A.A.Z.B.N.`.U , '.'.'.'.",
"'.8 A.V.B.N.N.M.@ G.R R R R S.`._.Y ; '.'.'.",
"'.7 B.X. .} [ ] $ P.P.L.L.K.K.!.T.V.< '.'.'.",
"'.6 N. .{ ] ' _ $ E.E T T T H.I.I.C.: '.'.'.",
"'.5 m.{ ` ( / ^ & Q.W.W.R.R.Y.Y.U.D.> '.'.'.",
"'.4 n.! a j j j f k k k j j j j g g u i d '.",
"'.3 b.D G v.c.c.c.v.v.v.v.v.v.v.J.J.J.x.y '.",
"'.2 +.S @.z.1.1.1.1.1.1.1.1.1.1.1.1.t.k.g '.",
"'.- O.V =.l.8.8.8.8.8.8.8.8.8.8.8.8.w.d.z '.",
"'.# o.M r.j.u.u.u.u.u.u.u.u.u.u.u.>.0.i.x '.",
"'.+ ..n g.j.p.p.p.p.p.p.p.p.p.y.,.*.a.3.x '.",
"'.O | v h.f.p.p.p.y.e.9.7.2.-.*.*.*.a.#.k '.",
"'.o ] h s.q.;.&.I L L L L L L L L L 6.F p '.",
"'.. ) u 4.K J J J J J J J J J J J J %.A '.'.",
"'.. ~ l $.H H H H H H H H H H H H H P N '.'.",
"'.. Q B 5.:.:.:.:.:.:.:.:.:.:.:.:.:.<.m '.'.",
"'.X c b Z Z Z Z Z Z Z Z Z Z Z Z Z Z C s '.'.",
"'.  w r r r r r r r r r r r r r r t e q '.'.",
"'.'.'.'.'.'.'.'.'.'.'.'.'.'.'.'.'.'.'.'.'.'.",
"'.'.'.'.'.'.'.'.'.'.'.'.'.'.'.'.'.'.'.'.'.'."
};
