/* XPM */
static char *system_browser[] = {
/* columns rows colors chars-per-pixel */
"22 22 154 2 ",
"   c black",
".  c #423921",
"X  c #6D4401",
"o  c #5E4D2F",
"O  c #6E5938",
"+  c #6C6E6A",
"@  c #777875",
"#  c #787B76",
"$  c #804F01",
"%  c #805001",
"&  c #8D5701",
"*  c #8F5902",
"=  c #9B7E51",
"-  c #7E817C",
";  c #7F827D",
":  c #9F8154",
">  c #9F8254",
",  c #A08253",
"<  c #A18355",
"1  c #A28555",
"2  c #A28556",
"3  c #A48757",
"4  c #C89F64",
"5  c #CBA165",
"6  c #CEA668",
"7  c #CFAA69",
"8  c #CDAB6F",
"9  c #D2AC6A",
"0  c #CFAD71",
"q  c #7BA3CC",
"w  c #7DA2CC",
"e  c #7FA6CF",
"r  c #818380",
"t  c #838580",
"y  c #828680",
"u  c #838781",
"i  c #848781",
"p  c #848482",
"a  c #848882",
"s  c #868883",
"d  c #878984",
"f  c #868A84",
"g  c #888A85",
"h  c #898B86",
"j  c #8A8C87",
"k  c #8C8E89",
"l  c #8D8F8A",
"z  c #8D8E8C",
"x  c #929491",
"c  c #979995",
"v  c #BEA887",
"b  c #A3A4A3",
"n  c #A7A8A6",
"m  c #A3AFBC",
"M  c #B8B8B7",
"N  c #B9B9B9",
"B  c gray",
"V  c #8DA8C4",
"C  c #87A8CB",
"Z  c #85A8CF",
"A  c #87A9CE",
"S  c #8FACCD",
"D  c #90ADCB",
"F  c #92AECC",
"G  c #97B0CB",
"H  c #99B0CA",
"J  c #98B2CF",
"K  c #8AACD1",
"L  c #8DAFD2",
"P  c #8CB0D6",
"I  c #96B3D2",
"U  c #9AB4D0",
"Y  c #9FB8D1",
"T  c #9BB9D8",
"R  c #A8B5C3",
"E  c #A2B4CA",
"W  c #A3B6CA",
"Q  c #A7B7C8",
"!  c #AAB9C8",
"~  c #AFBBC8",
"^  c #A8B9CD",
"/  c #A2B8D0",
"(  c #A6BCD2",
")  c #A2BAD4",
"_  c #A9BFD6",
"`  c #A2BEDC",
"'  c #A4BFDD",
"]  c #A8BED8",
"[  c #AFC2D7",
"{  c #ABC3DC",
"}  c #B3C8DC",
"|  c #B3C8DF",
" . c #BECFE2",
".. c #BED2E6",
"X. c #C3C3C3",
"o. c #C3C4C2",
"O. c #C4C4C3",
"+. c gray77",
"@. c #C5C5C4",
"#. c #C5C5C5",
"$. c #C6C6C5",
"%. c #C7C7C6",
"&. c #CACACA",
"*. c #CBCCCA",
"=. c #CCCCCB",
"-. c #CDCDCD",
";. c #D6D7D5",
":. c #D8D8D8",
">. c gainsboro",
",. c #DDDDDD",
"<. c gray87",
"1. c #DFDFDF",
"2. c #EDE5C4",
"3. c #EDE6C5",
"4. c #EEE8C6",
"5. c #EEEAC6",
"6. c #EFEBC7",
"7. c #C5D7EA",
"8. c #C8D7E8",
"9. c #C8D8EA",
"0. c #CBDAEA",
"q. c #D3DEEB",
"w. c #D5E0EC",
"e. c #D9E2EC",
"r. c #D9E3EE",
"t. c #DBE5F1",
"y. c #E1E1E1",
"u. c gray90",
"i. c #E6E6E6",
"p. c gray91",
"a. c #E9E9E9",
"s. c #EAEAE9",
"d. c #EAEAEA",
"f. c #EBEBEA",
"g. c gray92",
"h. c #ECECEB",
"j. c #ECECEC",
"k. c #EDEDEC",
"l. c gray93",
"z. c #EEEEED",
"x. c #EEEEEE",
"c. c #EFEFEE",
"v. c #EFEFEF",
"b. c #F0F0EF",
"n. c #E4ECF4",
"m. c #E7EEF6",
"M. c gray96",
"N. c gray97",
"B. c gray98",
"V. c gray99",
"C. c #FDFDFD",
"Z. c #FEFEFE",
"A. c white",
"S. c None",
/* pixels */
"S.S.S.S.S.S.S.S.S.S.S.S.S.S.S.S.S.S.S.S.S.S.",
"S.S.c k s r r r r s k k k k k k l S.S.S.S.S.",
"S.S.h =.r ~ ( ) ^ r *.Z.Z.Z.Z.A.k S.S.S.S.S.",
"S.S.t r Q K ..7.T D r ;.b.b.b.Z.k S.S.S.S.S.",
"S.S.r m Z t.m.n.9.P G r b.b.c.Z.k S.S.* * S.",
"S.S.r / ' q.e.r.[ S w r %.$.x.Z.k S.* 5.0 * ",
"S.S.r _ ` 0.w.8. .| e r z.k.l.Z.k * 6.9 < * ",
"S.S.r R A H W E ! V F r #.@.x.Z.* 6.9 3 * S.",
"S.S.@ r Y L ] { U I r o.k.z.l.* 5.7 = * S.S.",
"S.+ b b r } C q J r x #.z.l.* 5.6 > * S.S.S.",
"p b b M z r r r r n h.g.v.* 4.6 3 * S.S.S.S.",
"p b M z c.#.#.@.+.O.X.-.* 4.8 2 * S.S.S.S.S.",
"p z z C.z.h.g.f.d.s.j.* 3.5 1 * f S.S.S.S.S.",
"S.S.j A.k.j.h.f.d.c.* 2.4 : * Z.f S.S.S.S.S.",
"S.S.h C.h.g.f.d.g.l.O v , & g.V.a S.S.S.S.S.",
"S.S.h B.f.d.s.g.i.% . o $ :.>.x.; S.S.S.S.S.",
"S.S.h N.d.a.z.v.1.  X N B +.&.<.# S.S.S.S.S.",
"S.S.h Z.Z.Z.Z.C.M.u.,.1.y.u.p.g.- S.S.S.S.S.",
"S.S.k h h g g g d s i y u u a a S.S.S.S.S.S.",
"S.S.S.S.S.S.S.S.S.S.S.S.S.S.S.S.S.S.S.S.S.S.",
"S.S.S.S.S.S.S.S.S.S.S.S.S.S.S.S.S.S.S.S.S.S.",
"S.S.S.S.S.S.S.S.S.S.S.S.S.S.S.S.S.S.S.S.S.S."
};
